<?xml version="1.0" encoding="UTF-8" standalone="no"?>
<!-- Created with Inkscape (http://www.inkscape.org/) -->

<svg
   xmlns:dc="http://purl.org/dc/elements/1.1/"
   xmlns:cc="http://creativecommons.org/ns#"
   xmlns:rdf="http://www.w3.org/1999/02/22-rdf-syntax-ns#"
   xmlns:svg="http://www.w3.org/2000/svg"
   xmlns="http://www.w3.org/2000/svg"
   xmlns:sodipodi="http://sodipodi.sourceforge.net/DTD/sodipodi-0.dtd"
   xmlns:inkscape="http://www.inkscape.org/namespaces/inkscape"
   width="250"
   height="200"
   viewBox="0 0 66.145832 52.916668"
   version="1.1"
   id="svg8"
   inkscape:version="0.92.4 (5da689c313, 2019-01-14)"
   sodipodi:docname="ecommerce-icone.svg">
  <defs
     id="defs2" />
  <sodipodi:namedview
     id="base"
     pagecolor="#ffffff"
     bordercolor="#666666"
     borderopacity="1.0"
     inkscape:pageopacity="0.0"
     inkscape:pageshadow="2"
     inkscape:zoom="1.979899"
     inkscape:cx="147.92509"
     inkscape:cy="132.88834"
     inkscape:document-units="px"
     inkscape:current-layer="layer1"
     showgrid="false"
     units="px"
     inkscape:window-width="1366"
     inkscape:window-height="705"
     inkscape:window-x="-8"
     inkscape:window-y="-8"
     inkscape:window-maximized="1"
     inkscape:pagecheckerboard="true" />
  <metadata
     id="metadata5">
    <rdf:RDF>
      <cc:Work
         rdf:about="">
        <dc:format>image/svg+xml</dc:format>
        <dc:type
           rdf:resource="http://purl.org/dc/dcmitype/StillImage" />
        <dc:title />
      </cc:Work>
    </rdf:RDF>
  </metadata>
  <g
     inkscape:label="Layer 1"
     inkscape:groupmode="layer"
     id="layer1"
     transform="translate(0,-244.08333)">
    <rect
       id="rect10"
       width="64.575066"
       height="51.345898"
       x="0.78538394"
       y="244.86871"
       style="fill:none;stroke:#ffffff;stroke-width:1.5708313;stroke-miterlimit:4;stroke-dasharray:none;stroke-opacity:1"
       rx="1.0339271"
       ry="1.3302046" />
    <path
       style="fill:none;stroke:#ffffff;stroke-width:1.58749998;stroke-linecap:butt;stroke-linejoin:miter;stroke-miterlimit:4;stroke-dasharray:none;stroke-opacity:1"
       d="M 8.6534886e-8,253.68393 H 66.145833"
       id="path817"
       inkscape:connector-curvature="0" />
    <rect
       style="fill:#ffffff;fill-opacity:1;stroke:#ffffff;stroke-width:0.2117721;stroke-opacity:1"
       id="rect844"
       width="14.430534"
       height="4.5507278"
       x="48.019012"
       y="247.10387"
       ry="2.2753639"
       rx="2.3442347" />
    <circle
       style="fill:#ffffff;fill-opacity:1;stroke:#ffffff;stroke-width:0.29484987;stroke-opacity:1"
       id="path846"
       cx="5.7234635"
       cy="249.37923"
       r="2.233825" />
    <circle
       style="fill:#ffffff;fill-opacity:1;stroke:#ffffff;stroke-width:0.29484987;stroke-opacity:1"
       id="path846-8"
       cx="11.744173"
       cy="249.37923"
       r="2.2338247" />
    <circle
       style="fill:#ffffff;fill-opacity:1;stroke:#ffffff;stroke-width:0.29484987;stroke-opacity:1"
       id="path846-0"
       cx="17.764881"
       cy="249.37923"
       r="2.2338247" />
    <g
       aria-label="$"
       style="font-style:normal;font-weight:normal;font-size:41.66973495px;line-height:1.25;font-family:sans-serif;letter-spacing:0px;word-spacing:0px;fill:#ffffff;fill-opacity:1;stroke:none;stroke-width:1.0417434"
       id="text871">
      <path
         d="m 41.577775,280.54266 q 0,1.62773 -0.630743,2.9706 -0.610397,1.32253 -1.749804,2.27881 -1.139406,0.95629 -2.787477,1.526 -1.648071,0.5697 -3.682726,0.67143 l -0.447624,4.4152 q -0.02035,0.12208 -0.08139,0.22382 -0.04069,0.12207 -0.183119,0.18311 -0.142426,0.0814 -0.406931,0.12208 -0.244158,0.0407 -0.651089,0.0407 -0.467971,0 -0.752823,-0.061 -0.264505,-0.0407 -0.427277,-0.12208 -0.162773,-0.061 -0.223812,-0.20347 -0.04069,-0.12208 0,-0.28485 l 0.46797,-4.39485 q -0.976634,-0.12208 -1.810843,-0.3052 -0.834208,-0.20347 -1.485298,-0.42728 -0.651089,-0.22381 -1.11906,-0.46797 -0.447624,-0.24416 -0.671436,-0.44762 -0.203466,-0.22382 -0.284852,-0.56971 -0.08139,-0.34589 -0.08139,-0.95629 0,-0.44762 0.04069,-0.73247 0.04069,-0.3052 0.122079,-0.48832 0.08139,-0.20346 0.203466,-0.2645 0.142426,-0.0814 0.325544,-0.0814 0.264506,0 0.752823,0.3052 0.488317,0.28485 1.281833,0.65109 0.813862,0.34589 1.973615,0.65109 1.159753,0.3052 2.787477,0.3052 2.88921,0 4.374509,-1.13941 1.505644,-1.13941 1.505644,-3.09268 0,-1.20044 -0.549357,-1.99396 -0.549356,-0.81386 -1.464951,-1.38356 -0.895248,-0.59005 -2.055002,-0.99699 -1.139407,-0.42727 -2.339853,-0.85455 -1.1801,-0.42728 -2.339853,-0.97664 -1.139407,-0.54935 -2.034655,-1.36321 -0.895249,-0.81387 -1.444605,-1.97362 -0.549357,-1.1801 -0.549357,-2.88921 0,-1.36322 0.46797,-2.54332 0.467971,-1.1801 1.403912,-2.055 0.935942,-0.89525 2.3602,-1.4446 1.424259,-0.56971 3.316488,-0.69179 l 0.406931,-4.11 q 0.02035,-0.12208 0.06104,-0.22381 0.06104,-0.12208 0.203465,-0.20347 0.142426,-0.0814 0.386585,-0.10173 0.244158,-0.0407 0.671436,-0.0407 0.447624,0 0.732475,0.0407 0.305199,0.0407 0.447625,0.14242 0.162772,0.0814 0.203465,0.20347 0.04069,0.12208 0.04069,0.28485 l -0.447624,4.06931 q 0.610397,0.061 1.261486,0.22381 0.671436,0.14243 1.24114,0.3459 0.59005,0.18311 1.05802,0.42727 0.467971,0.22382 0.630743,0.38659 0.183119,0.16277 0.244159,0.3052 0.08139,0.14242 0.122079,0.32554 0.04069,0.18312 0.06104,0.42728 0.04069,0.24416 0.04069,0.54935 0,0.38659 -0.04069,0.67144 -0.02035,0.28485 -0.08139,0.44763 -0.06104,0.16277 -0.162773,0.24415 -0.101732,0.0814 -0.244158,0.0814 -0.223812,0 -0.712129,-0.26451 -0.488318,-0.2645 -1.24114,-0.5697 -0.732476,-0.3052 -1.70911,-0.5697 -0.976635,-0.26451 -2.177081,-0.26451 -1.363219,0 -2.339853,0.26451 -0.956288,0.2645 -1.566685,0.75282 -0.59005,0.46797 -0.874901,1.13941 -0.264506,0.67143 -0.264506,1.46495 0,1.22079 0.549357,2.03465 0.569704,0.81387 1.464952,1.38357 0.915595,0.5697 2.075348,0.97663 1.159753,0.40693 2.3602,0.85456 1.220793,0.42728 2.380546,0.95629 1.159754,0.52901 2.055002,1.34287 0.915595,0.81386 1.464951,1.99396 0.569704,1.15975 0.569704,2.86886 z"
         style="font-style:normal;font-variant:normal;font-weight:normal;font-stretch:normal;font-family:Calibri;-inkscape-font-specification:Calibri;fill:#ffffff;fill-opacity:1;stroke-width:1.0417434"
         id="path15" />
    </g>
  </g>
</svg>
